<?xml version="1.0" encoding="UTF-8"?>
<svg width="512" height="512" version="1.1" viewBox="0 0 512 512" xmlns="http://www.w3.org/2000/svg">
 <g transform="translate(0 -540.36)">
  <path d="m256 540.36c-141.38 0-256 114.62-256 256s114.62 256 256 256 256-114.62 256-256-114.62-256-256-256zm0 40c119.29 0 216 96.71 216 216s-96.71 216-216 216-216-96.71-216-216 96.71-216 216-216z" fill="#ff4444"/>
  <path d="m256 620.36c-97.202 0-176 78.798-176 176s78.798 176 176 176 176-78.798 176-176-78.798-176-176-176zm0 40c75.111 0 136 60.889 136 136s-60.889 136-136 136-136-60.889-136-136 60.889-136 136-136z" fill="#ff4444"/>
  <path d="m256 700.36c-53.02 0-96 42.98-96 96s42.98 96 96 96 96-42.98 96-96-42.98-96-96-96zm0 40c30.928 0 56 25.072 56 56s-25.072 56-56 56-56-25.072-56-56 25.072-56 56-56z" fill="#ff4444"/>
  <circle cx="256" cy="796.36" r="20" fill="#ff4444"/>
 </g>
</svg>